<?xml version="1.0" encoding="utf-8"?>
<!-- Generator: Adobe Illustrator 18.0.0, SVG Export Plug-In . SVG Version: 6.00 Build 0)  -->
<!DOCTYPE svg PUBLIC "-//W3C//DTD SVG 1.1//EN" "http://www.w3.org/Graphics/SVG/1.1/DTD/svg11.dtd">
<svg version="1.1" id="Layer_1" xmlns="http://www.w3.org/2000/svg" xmlns:xlink="http://www.w3.org/1999/xlink" x="0px" y="0px"
	 viewBox="-536 -514.9 1200 1154.9" enable-background="new -536 -514.9 1200 1154.9" xml:space="preserve">
<g id="svg_8">
	<path id="outline2" fill="#000000"    d="M-35-476.6l7.8,1.6
		c90.8-30.3,294.5,89,249.1,195.3c-11.5,16.7-9.6,46.3,4.3,65L-28.6,41c-14.3-14.3-46-14-60.6,0l-421.3,405.6
		c-38.4,37-8.2,68.4,8,85l75.6,75.8c16.5,16.5,60.2,38.7,91.2,5.8L61.9,192.8c13.9-14.6,14-46,0-60.5c0,0,0.1-0.2,0-0.2l255.8-256.5
		c27,24.4,52.5,26.5,76.7,19.9c46.7-12.8,72.8,33,100.7,66.5l-12.6,12.5c-18.7,19-16.9,50.9,4,71.9c20.9,21,52.9,22.8,71.6,4
		l83.6-83.7c18.7-19,16.9-50.9-4.1-71.8c-18.9-19.1-46.3-21.5-65.4-7.9c-57.3-64.5-27.2-74.2-102.8-158.1L327.8-416.2
		C225.8-516.6,93.3-516.5-35-476.6L-35-476.6z"/>
</g>
<g id="svg_9">
	<path id="outline2_1_" fill="#000000"    d="M-35-476.6l7.8,1.6
		c90.8-30.3,294.5,89,249.1,195.3c-11.5,16.7-9.6,46.3,4.3,65L-28.6,41c-14.3-14.3-46-14-60.6,0l-421.3,405.6
		c-38.4,37-8.2,68.4,8,85l75.6,75.8c16.5,16.5,60.2,38.7,91.2,5.8L61.9,192.8c13.9-14.6,14-46,0-60.5c0,0,0.1-0.2,0-0.2l255.8-256.5
		c27,24.4,52.5,26.5,76.7,19.9c46.7-12.8,72.8,33,100.7,66.5l-12.6,12.5c-18.7,19-16.9,50.9,4,71.9c20.9,21,52.9,22.8,71.6,4
		l83.6-83.7c18.7-19,16.9-50.9-4.1-71.8c-18.9-19.1-46.3-21.5-65.4-7.9c-57.3-64.5-27.2-74.2-102.8-158.1L327.8-416.2
		C225.8-516.6,93.3-516.5-35-476.6L-35-476.6z"/>
</g>
</svg>
